<svg xmlns="http://www.w3.org/2000/svg" viewBox="0 0 900 750" font-family="Consolas, monospace" font-size="13">
  <defs>
    <style>
      .box { fill: #1a1a2e; stroke: #e94560; stroke-width: 1.5; rx: 6; ry: 6; }
      .box-warm { fill: #16213e; stroke: #f5a623; stroke-width: 1.5; rx: 6; ry: 6; }
      .box-mem { fill: #0f3460; stroke: #533483; stroke-width: 1.5; rx: 6; ry: 6; }
      .label { fill: #e0e0e0; text-anchor: middle; font-weight: bold; }
      .sub { fill: #a0a0a0; text-anchor: middle; font-size: 11px; }
      .arrow { stroke: #e94560; stroke-width: 1.5; fill: none; marker-end: url(#arrow); }
      .arrow-purple { stroke: #533483; stroke-width: 1.5; fill: none; marker-end: url(#arrow-purple); }
    </style>
    <marker id="arrow" viewBox="0 0 10 10" refX="10" refY="5" markerWidth="8" markerHeight="8" orient="auto">
      <path d="M 0 0 L 10 5 L 0 10 z" fill="#e94560"/>
    </marker>
    <marker id="arrow-purple" viewBox="0 0 10 10" refX="10" refY="5" markerWidth="8" markerHeight="8" orient="auto">
      <path d="M 0 0 L 10 5 L 0 10 z" fill="#533483"/>
    </marker>
  </defs>

  <!-- Background -->
  <rect width="900" height="750" fill="#0d1117" rx="10"/>

  <!-- Title -->
  <text x="450" y="30" fill="#e94560" text-anchor="middle" font-weight="bold" font-size="18">CortexLLM Architecture — v0.3.0 (2026-07-01)</text>
  <text x="450" y="48" fill="#666" text-anchor="middle" font-size="11">Single Model: deepseek-v4-flash:cloud | All sub-agents use same model</text>

  <!-- Layer: OpenClaw Agent -->
  <rect class="box" x="125" y="65" width="650" height="55"/>
  <text x="450" y="88" class="label" font-size="14">OpenClaw Agent (primary platform)</text>
  <text x="450" y="105" class="sub">User messages → session lifecycle → memory integration</text>

  <!-- Arrow -->
  <line x1="450" y1="120" x2="450" y2="155" class="arrow"/>

  <!-- Layer: CortexLLM Engine -->
  <rect class="box-warm" x="50" y="155" width="800" height="280"/>
  <text x="450" y="175" fill="#f5a623" text-anchor="middle" font-weight="bold" font-size="14">CortexLLM Engine</text>

  <!-- Row 1 -->
  <rect class="box" x="75" y="190" width="170" height="50"/>
  <text x="160" y="210" class="label" font-size="12">Memory Manager</text>
  <text x="160" y="227" class="sub">3-tier hot/warm/cold</text>

  <rect class="box" x="270" y="190" width="170" height="50"/>
  <text x="355" y="210" class="label" font-size="12">Model Router</text>
  <text x="355" y="227" class="sub">Single model delegation</text>

  <rect class="box" x="465" y="190" width="170" height="50"/>
  <text x="550" y="210" class="label" font-size="12">Loop Guard</text>
  <text x="550" y="227" class="sub">Failure loop detection</text>

  <rect class="box" x="660" y="190" width="170" height="50"/>
  <text x="745" y="210" class="label" font-size="12">Heartbeat</text>
  <text x="745" y="227" class="sub">Session health check</text>

  <!-- Row 2 -->
  <rect class="box" x="75" y="260" width="170" height="50"/>
  <text x="160" y="280" class="label" font-size="12">Anti-Hallucination</text>
  <text x="160" y="297" class="sub">Pre-exec verification</text>

  <rect class="box" x="270" y="260" width="170" height="50"/>
  <text x="355" y="280" class="label" font-size="12">MCP Server</text>
  <text x="355" y="297" class="sub">On-demand stdio protocol</text>

  <rect class="box" x="465" y="260" width="170" height="50"/>
  <text x="550" y="280" class="label" font-size="12">Memory Hook</text>
  <text x="550" y="297" class="sub">OpenClaw integration</text>

  <rect class="box" x="660" y="260" width="170" height="50"/>
  <text x="745" y="280" class="label" font-size="12">OpenCode Hook</text>
  <text x="745" y="297" class="sub">OpenCode integration</text>

  <!-- Row 3 -->
  <rect class="box" x="75" y="330" width="260" height="50"/>
  <text x="205" y="350" class="label" font-size="12">save-session.py / save-all-sessions.py</text>
  <text x="205" y="367" class="sub">Session persistence</text>

  <rect class="box" x="360" y="330" width="180" height="50"/>
  <text x="450" y="350" class="label" font-size="12">memory-tools.py</text>
  <text x="450" y="367" class="sub">CLI append / search</text>

  <rect class="box" x="565" y="330" width="265" height="50"/>
  <text x="697" y="350" class="label" font-size="12">canvas_homework_checker.py</text>
  <text x="697" y="367" class="sub">Canvas integration</text>

  <!-- Arrow -->
  <line x1="450" y1="435" x2="450" y2="470" class="arrow-purple"/>

  <!-- Layer: Memory -->
  <rect class="box-mem" x="50" y="470" width="800" height="120"/>
  <text x="450" y="490" fill="#533483" text-anchor="middle" font-weight="bold" font-size="14">Memory System (3-tier) — ~/.config/cortexllm/memory/</text>

  <rect class="box" x="65" y="502" width="235" height="75"/>
  <text x="182" y="522" class="label">HOT</text>
  <text x="182" y="539" class="sub">Current session context</text>
  <text x="182" y="554" class="sub">100 msg limit, auto-evict</text>
  <text x="182" y="569" class="sub">hot/*.json</text>

  <rect class="box-warm" x="325" y="502" width="240" height="75"/>
  <text x="445" y="522" fill="#f5a623" text-anchor="middle" font-weight="bold">WARM</text>
  <text x="445" y="539" fill="#a0a0a0" text-anchor="middle" font-size="11">Recent session summaries</text>
  <text x="445" y="554" fill="#a0a0a0" text-anchor="middle" font-size="11">50 msg limit, time-based</text>
  <text x="445" y="569" fill="#a0a0a0" text-anchor="middle" font-size="11">warm/*.json</text>

  <rect class="box" x="590" y="502" width="245" height="75"/>
  <text x="712" y="522" class="label">COLD</text>
  <text x="712" y="539" class="sub">Permanent knowledge</text>
  <text x="712" y="554" class="sub">Never removed / categorized</text>
  <text x="712" y="569" class="sub">cold/*.json</text>

  <!-- Supporting -->
  <rect x="50" y="610" width="800" height="50" fill="#1a1a2e55" stroke="#555" stroke-width="1" rx="6" ry="6"/>
  <text x="450" y="632" fill="#666" text-anchor="middle" font-size="12">Supporting Systems</text>
  <text x="160" y="650" fill="#888" text-anchor="middle" font-size="11">Watcher (CLI dashboard)</text>
  <text x="355" y="650" fill="#888" text-anchor="middle" font-size="11">Scheduler (background tasks)</text>
  <text x="550" y="650" fill="#888" text-anchor="middle" font-size="11">Platform Configs (AGENTS/SOUL)</text>
  <text x="745" y="650" fill="#888" text-anchor="middle" font-size="11">openclaw-inject</text>

  <!-- Footer -->
  <text x="450" y="700" fill="#444" text-anchor="middle" font-size="11">All memory files are gitignored — NEVER committed to GitHub</text>
  <text x="450" y="718" fill="#444" text-anchor="middle" font-size="11">cortexllm/ · save-session.py · memory-tools.py · platforms/</text>
  <text x="450" y="736" fill="#444" text-anchor="middle" font-size="11">No OpenAI · No Anthropic · No Qwen · Single model only</text>
</svg>
